<svg width="5" height="6" viewBox="0 0 5 6" fill="none" xmlns="http://www.w3.org/2000/svg">
<path d="M0.293457 6.00023V0.204229H1.86546V6.00023H0.293457ZM1.86546 2.79623L1.25346 2.38823C1.32546 1.67623 1.53346 1.11623 1.87746 0.708229C2.22146 0.292229 2.71746 0.0842285 3.36546 0.0842285C3.64546 0.0842285 3.89746 0.132228 4.12146 0.228228C4.34546 0.316228 4.54946 0.464228 4.73346 0.672228L3.74946 1.80023C3.66146 1.70423 3.55346 1.63223 3.42546 1.58423C3.30546 1.53623 3.16546 1.51223 3.00546 1.51223C2.66946 1.51223 2.39346 1.62023 2.17746 1.83623C1.96946 2.04423 1.86546 2.36423 1.86546 2.79623Z" fill="white"/>
</svg>
