<svg width="7" height="7" viewBox="0 0 7 7" fill="none" xmlns="http://www.w3.org/2000/svg">
<path d="M3.09259 6.12023C2.56459 6.12023 2.08859 5.98823 1.66459 5.72423C1.24059 5.46023 0.908592 5.10023 0.668592 4.64423C0.428592 4.18823 0.308594 3.67623 0.308594 3.10823C0.308594 2.53223 0.428592 2.01623 0.668592 1.56023C0.908592 1.10423 1.24059 0.744228 1.66459 0.480228C2.08859 0.216228 2.56459 0.0842285 3.09259 0.0842285C3.50859 0.0842285 3.88059 0.168229 4.20859 0.336229C4.53659 0.504229 4.79659 0.740229 4.98859 1.04423C5.18859 1.34023 5.29659 1.67623 5.31259 2.05223V4.14023C5.29659 4.52423 5.18859 4.86423 4.98859 5.16023C4.79659 5.45623 4.53659 5.69223 4.20859 5.86823C3.88059 6.03623 3.50859 6.12023 3.09259 6.12023ZM3.38059 4.66823C3.82059 4.66823 4.17659 4.52423 4.44859 4.23623C4.72059 3.94023 4.85659 3.56023 4.85659 3.09623C4.85659 2.79223 4.79259 2.52423 4.66459 2.29223C4.54459 2.05223 4.37259 1.86823 4.14859 1.74023C3.93259 1.60423 3.67659 1.53623 3.38059 1.53623C3.09259 1.53623 2.83659 1.60423 2.61259 1.74023C2.39659 1.86823 2.22459 2.05223 2.09659 2.29223C1.97659 2.52423 1.91659 2.79223 1.91659 3.09623C1.91659 3.40823 1.97659 3.68423 2.09659 3.92423C2.22459 4.15623 2.39659 4.34023 2.61259 4.47623C2.83659 4.60423 3.09259 4.66823 3.38059 4.66823ZM4.77259 6.00023V4.44023L5.02459 3.02423L4.77259 1.63223V0.204229H6.33259V6.00023H4.77259Z" fill="white"/>
</svg>
