<svg width="10" height="6" viewBox="0 0 10 6" fill="none" xmlns="http://www.w3.org/2000/svg">
<path d="M0.262207 6.00023V0.204229H1.83421V6.00023H0.262207ZM4.04221 6.00023V2.58023C4.04221 2.24423 3.93421 1.98423 3.71821 1.80023C3.51021 1.60823 3.25021 1.51223 2.93821 1.51223C2.73021 1.51223 2.54221 1.55623 2.37421 1.64423C2.20621 1.72423 2.07421 1.84423 1.97821 2.00423C1.88221 2.16423 1.83421 2.35623 1.83421 2.58023L1.22221 2.28023C1.22221 1.83223 1.31821 1.44423 1.51021 1.11623C1.71021 0.788228 1.97821 0.53623 2.31421 0.360229C2.65021 0.176229 3.03021 0.0842285 3.45421 0.0842285C3.85421 0.0842285 4.21821 0.176229 4.54621 0.360229C4.87421 0.53623 5.13421 0.788228 5.32621 1.11623C5.51821 1.43623 5.61421 1.82423 5.61421 2.28023V6.00023H4.04221ZM7.82221 6.00023V2.58023C7.82221 2.24423 7.71421 1.98423 7.49821 1.80023C7.29021 1.60823 7.03021 1.51223 6.71821 1.51223C6.51821 1.51223 6.33021 1.55623 6.15421 1.64423C5.98621 1.72423 5.85421 1.84423 5.75821 2.00423C5.66221 2.16423 5.61421 2.35623 5.61421 2.58023L4.71421 2.36423C4.74621 1.90023 4.87021 1.50023 5.08621 1.16423C5.30221 0.820229 5.58621 0.556229 5.93821 0.372229C6.29021 0.180228 6.68221 0.0842285 7.11421 0.0842285C7.54621 0.0842285 7.93421 0.176229 8.27821 0.360229C8.62221 0.53623 8.89421 0.792229 9.09421 1.12823C9.29421 1.46423 9.39421 1.86423 9.39421 2.32823V6.00023H7.82221Z" fill="white"/>
</svg>
