<svg width="7" height="7" viewBox="0 0 7 7" fill="none" xmlns="http://www.w3.org/2000/svg">
<path d="M3.24103 6.12023C2.71303 6.12023 2.23703 5.98823 1.81303 5.72423C1.38903 5.46023 1.05703 5.10023 0.817032 4.64423C0.577032 4.18823 0.457031 3.67623 0.457031 3.10823C0.457031 2.53223 0.577032 2.01623 0.817032 1.56023C1.05703 1.10423 1.38903 0.744228 1.81303 0.480228C2.23703 0.216228 2.71303 0.0842285 3.24103 0.0842285C3.65703 0.0842285 4.02903 0.168229 4.35703 0.336229C4.68503 0.504229 4.94503 0.740229 5.13703 1.04423C5.33703 1.34023 5.44503 1.67623 5.46103 2.05223V4.14023C5.44503 4.52423 5.33703 4.86423 5.13703 5.16023C4.94503 5.45623 4.68503 5.69223 4.35703 5.86823C4.02903 6.03623 3.65703 6.12023 3.24103 6.12023ZM3.52903 4.66823C3.96903 4.66823 4.32503 4.52423 4.59703 4.23623C4.86903 3.94023 5.00503 3.56023 5.00503 3.09623C5.00503 2.79223 4.94103 2.52423 4.81303 2.29223C4.69303 2.05223 4.52103 1.86823 4.29703 1.74023C4.08103 1.60423 3.82503 1.53623 3.52903 1.53623C3.24103 1.53623 2.98503 1.60423 2.76103 1.74023C2.54503 1.86823 2.37303 2.05223 2.24503 2.29223C2.12503 2.52423 2.06503 2.79223 2.06503 3.09623C2.06503 3.40823 2.12503 3.68423 2.24503 3.92423C2.37303 4.15623 2.54503 4.34023 2.76103 4.47623C2.98503 4.60423 3.24103 4.66823 3.52903 4.66823ZM4.92103 6.00023V4.44023L5.17303 3.02423L4.92103 1.63223V0.204229H6.48103V6.00023H4.92103Z" fill="white"/>
</svg>
