<svg width="40" height="40" viewBox="0 0 40 40" fill="none" xmlns="http://www.w3.org/2000/svg">
<path d="M40 20C40 31.0457 31.0457 40 20 40C8.9543 40 0 31.0457 0 20C0 8.9543 8.9543 0 20 0C31.0457 0 40 8.9543 40 20Z" fill="white"/>
<path fill-rule="evenodd" clip-rule="evenodd" d="M23.2495 9.48911C22.2629 9.01444 21.1594 8.75 20 8.75C16.1976 8.75 12.9962 11.5943 12.5487 15.3703L12.2738 17.6899C12.2165 18.1734 12.1878 18.4151 12.1452 18.652C11.9884 19.5228 11.6883 20.3615 11.257 21.1341C11.1397 21.3442 11.0085 21.5493 10.746 21.9593L9.96998 23.1719C9.10032 24.5307 8.66549 25.2102 8.95003 25.7301C9.23457 26.25 10.0412 26.25 11.6545 26.25H28.3455C29.9588 26.25 30.7654 26.25 31.05 25.7301C31.3345 25.2102 30.8997 24.5307 30.03 23.1719L29.254 21.9593L29.2539 21.9592C28.9915 21.5492 28.8603 21.3442 28.743 21.1341C28.3117 20.3615 28.0116 19.5228 27.8548 18.652C27.8222 18.471 27.7978 18.2873 27.7626 17.9951C24.911 17.8763 22.3333 15.6303 22.3333 12.5C22.3333 11.3587 22.6759 10.335 23.2495 9.48911ZM25.6506 11.3163C26.5255 12.3166 27.1413 13.5553 27.3866 14.9335C26.2095 14.6738 25.3333 13.6828 25.3333 12.5C25.3333 12.0717 25.4482 11.6686 25.6506 11.3163Z" fill="#FFC727"/>
<path d="M16.1363 27.0809C16.3642 28.2769 16.8664 29.3338 17.565 30.0876C18.2635 30.8414 19.1195 31.25 20 31.25C20.8805 31.25 21.7365 30.8414 22.435 30.0876C23.1336 29.3338 23.6358 28.2769 23.8637 27.0809" stroke="#FFC727" stroke-width="2" stroke-linecap="round"/>
<path d="M28 15.5C29.7181 15.5 31.1667 14.1868 31.1667 12.5C31.1667 10.8132 29.7181 9.5 28 9.5C26.282 9.5 24.8334 10.8132 24.8334 12.5C24.8334 14.1868 26.282 15.5 28 15.5Z" fill="#82B3FD" stroke="#82B3FD"/>
</svg>
