<svg width="22" height="25" viewBox="0 0 22 25" fill="none" xmlns="http://www.w3.org/2000/svg">
<g clip-path="url(#clip0_226_10)">
<path d="M9.74658 2.5C14.116 2.5 17.6621 6.532 17.6621 11.5C17.6621 16.468 14.116 20.5 9.74658 20.5C5.37721 20.5 1.83105 16.468 1.83105 11.5C1.83105 6.532 5.37721 2.5 9.74658 2.5ZM9.74658 18.5C13.1476 18.5 15.9031 15.367 15.9031 11.5C15.9031 7.632 13.1476 4.5 9.74658 4.5C6.34466 4.5 3.59006 7.632 3.59006 11.5C3.59006 15.367 6.34466 18.5 9.74658 18.5ZM17.2092 18.571L19.6973 21.399L18.4528 22.814L15.9655 19.985L17.2092 18.571Z" fill="#D9D9D9"/>
</g>
<defs>
<clipPath id="clip0_226_10">
<rect width="21.1081" height="24" fill="white" transform="translate(0.0720215 0.5)"/>
</clipPath>
</defs>
</svg>
