<svg width="10" height="10" viewBox="0 0 10 10" fill="none" xmlns="http://www.w3.org/2000/svg">
<path d="M4.81188 9.13213C4.19588 9.13213 3.61988 9.02013 3.08388 8.79613C2.55588 8.57213 2.09188 8.26413 1.69188 7.87213C1.29988 7.47213 0.991885 7.00813 0.767885 6.48013C0.543885 5.94413 0.431885 5.37213 0.431885 4.76413C0.431885 4.15613 0.539885 3.59213 0.755885 3.07213C0.979885 2.54413 1.28788 2.08413 1.67988 1.69213C2.07988 1.29213 2.54388 0.984129 3.07188 0.768129C3.59988 0.544129 4.17188 0.432129 4.78788 0.432129C5.41188 0.432129 5.98789 0.544129 6.51589 0.768129C7.04389 0.984129 7.50389 1.29213 7.89589 1.69213C8.29589 2.08413 8.60789 2.54413 8.83189 3.07213C9.05589 3.60013 9.16789 4.16813 9.16789 4.77613C9.16789 5.38413 9.05589 5.95213 8.83189 6.48013C8.60789 7.00813 8.29589 7.47213 7.89589 7.87213C7.50389 8.26413 7.04389 8.57213 6.51589 8.79613C5.99588 9.02013 5.42789 9.13213 4.81188 9.13213ZM4.78788 7.60813C5.33188 7.60813 5.80388 7.48813 6.20389 7.24813C6.60389 7.00813 6.91588 6.67613 7.13988 6.25213C7.37188 5.82813 7.48788 5.33213 7.48788 4.76413C7.48788 4.34813 7.42388 3.96813 7.29589 3.62413C7.16788 3.28013 6.98388 2.98413 6.74389 2.73613C6.50388 2.48013 6.21988 2.28413 5.89188 2.14813C5.56388 2.01213 5.19588 1.94413 4.78788 1.94413C4.25988 1.94413 3.79188 2.06413 3.38388 2.30413C2.98388 2.53613 2.66788 2.86413 2.43588 3.28813C2.21188 3.71213 2.09988 4.20413 2.09988 4.76413C2.09988 5.18813 2.16388 5.57613 2.29189 5.92813C2.42788 6.28013 2.61188 6.58013 2.84388 6.82813C3.08388 7.07613 3.36789 7.26813 3.69589 7.40413C4.03189 7.54013 4.39588 7.60813 4.78788 7.60813Z" fill="white"/>
</svg>
